<svg id="e5hfg7mpvm4f1" xmlns="http://www.w3.org/2000/svg" xmlns:xlink="http://www.w3.org/1999/xlink" viewBox="0 0 700 700" shape-rendering="geometricPrecision" text-rendering="geometricPrecision"><style><![CDATA[#e5hfg7mpvm4f1{pointer-events: all}#e5hfg7mpvm4f1 * {animation-play-state: paused !important}#e5hfg7mpvm4f1:hover * {animation-play-state: running !important}#e5hfg7mpvm4f6_to {animation: e5hfg7mpvm4f6_to__to 1000ms linear infinite normal forwards}@keyframes e5hfg7mpvm4f6_to__to { 0% {transform: translate(0px,0px)} 20% {transform: translate(25.648786px,89.497019px);animation-timing-function: step-end} 30% {transform: translate(-85.676722px,-270.039388px)} 100% {transform: translate(0px,0px)} }#e5hfg7mpvm4f7_to {animation: e5hfg7mpvm4f7_to__to 1000ms linear infinite normal forwards}@keyframes e5hfg7mpvm4f7_to__to { 0% {transform: translate(0px,0px)} 50% {transform: translate(-34.787410px,208.724461px);animation-timing-function: step-end} 60% {transform: translate(18px,-156.662854px)} 100% {transform: translate(0px,0px)} }#e5hfg7mpvm4f8_to {animation: e5hfg7mpvm4f8_to__to 1000ms linear infinite normal forwards}@keyframes e5hfg7mpvm4f8_to__to { 0% {transform: translate(0px,0px)} 50% {transform: translate(60.131847px,199.584142px);animation-timing-function: step-end} 60% {transform: translate(-52.938890px,-149.485552px)} 100% {transform: translate(0px,0px)} }#e5hfg7mpvm4f9_to {animation: e5hfg7mpvm4f9_to__to 1000ms linear infinite normal forwards}@keyframes e5hfg7mpvm4f9_to__to { 0% {transform: translate(-42.520000px,-162.643152px)} 80% {transform: translate(-200.500000px,174.461549px);animation-timing-function: step-end} 90% {transform: translate(-22.401013px,-200.938451px)} 100% {transform: translate(-42.520000px,-162.643152px)} }#e5hfg7mpvm4f10_to {animation: e5hfg7mpvm4f10_to__to 1000ms linear infinite normal forwards}@keyframes e5hfg7mpvm4f10_to__to { 0% {transform: translate(186.124100px,-95.660944px)} 70% {transform: translate(230.627646px,173.937051px);animation-timing-function: step-end} 80% {transform: translate(182.762050px,-193.500000px)} 100% {transform: translate(186.120000px,-95.658959px)} }#e5hfg7mpvm4f11_to {animation: e5hfg7mpvm4f11_to__to 1000ms linear infinite normal forwards}@keyframes e5hfg7mpvm4f11_to__to { 0% {transform: translate(0px,0px)} 30% {transform: translate(-64.272245px,130.130683px);animation-timing-function: step-end} 40% {transform: translate(139.149641px,-239.832674px)} 100% {transform: translate(0px,0px)} }]]></style><g id="e5hfg7mpvm4f2"><path id="e5hfg7mpvm4f3" d="M324,1.600000C322.600000,1.800000,315.700000,2.700000,308.500000,3.600000C293.700000,5.400000,272.900000,9.500000,255.900000,13.900000C221.600000,22.900000,179,43,149,64.300000C124.200000,82,99.800000,104.500000,81.900000,126C66.600000,144.500000,62.600000,149.800000,54.700000,162.600000C7.900000,238,-9.200000,321.400000,4.600000,406.500000C12,452.200000,26.600000,491.800000,51,532.800000C56,541.200000,63.400000,552.500000,67.500000,557.900000C77.600000,571.200000,102.400000,599.300000,109.600000,605.500000C112.800000,608.200000,119.300000,613.800000,124,617.900000C148.700000,639.200000,174.700000,655.500000,207.700000,670.400000C236.800000,683.500000,262.400000,691,299.400000,697.200000C311.300000,699.200000,316,699.400000,351,699.500000C388.400000,699.500000,389.900000,699.400000,405,696.800000C446.200000,689.600000,475.200000,680.400000,507.500000,664.300000C535,650.600000,552.500000,639,578.900000,617.200000C596.800000,602.300000,605.700000,593.300000,621.900000,573.700000C641.400000,550,650.900000,535.200000,664.800000,507.500000C682.700000,471.900000,690.700000,446.100000,698.400000,400.200000C700.300000,389,700.700000,316.700000,698.900000,304.800000C694,271.700000,685,238.800000,674.200000,214.500000C656.500000,174.400000,641.200000,150.500000,609.900000,114.400000C594.700000,96.900000,562.400000,69.900000,539.400000,55.600000C503.300000,33,462.800000,16.700000,423.500000,8.900000C394.900000,3.200000,381.700000,1.800000,353,1.500000C338.400000,1.300000,325.400000,1.300000,324,1.600000Z" fill="rgb(255,127,42)" stroke="none" stroke-width="0.100000"/><path id="e5hfg7mpvm4f4" d="M561.987810,265.112900C509.437210,257.153550,445.318070,251.972940,377.383790,250.186380C309.326430,248.396410,265.390670,249.276290,177.519170,254.136070C169.765800,254.520760,163.735400,254.453250,163.120040,253.936210C161.274020,252.384940,203.363740,219.453790,210.009470,217.138340C219.362730,213.798090,259.975640,210.025920,304.772880,208.369960C327.663770,207.405650,416.889040,209.883460,440.149140,212.129410C467.470540,214.688130,481.500440,216.177750,494.915010,218.250270C501.683820,219.238250,510.052550,220.470640,513.375400,220.862930C525.682360,222.504690,536.020170,225.191770,541.312140,228.138730C544.265820,229.820760,550.173150,234.684810,554.480590,239.004430C558.788000,243.324040,565.926040,249.222280,570.356530,252.045310C580.079000,258.215300,590.293760,266.198980,590.293760,267.498980C590.293760,268.998980,583.155730,268.400750,561.987810,265.112900Z" fill="rgb(255,255,255)" stroke="none" stroke-width="0.110937"/></g><g id="e5hfg7mpvm4f5"><g id="e5hfg7mpvm4f6_to" transform="translate(0,0)"><path id="e5hfg7mpvm4f6" d="M319.100000,207C327.100000,209.900000,332.500000,214.200000,336,220.200000C338.800000,225.200000,339,226.100000,339,236.900000C339,250.700000,337.600000,254.400000,329.400000,261.900000C322,268.700000,314.800000,271.400000,304.500000,271.400000C294.700000,271.400000,290.200000,269.300000,281.900000,261.100000C274.700000,253.900000,272.200000,248.900000,271.400000,240.300000C270.100000,226.400000,274.900000,215.200000,284.500000,209.900000C295.500000,203.700000,307.800000,202.700000,319.100000,207Z" transform="translate(0,0)" fill="rgb(255,204,170)" stroke="none" stroke-width="0.100000"/></g><g id="e5hfg7mpvm4f7_to" transform="translate(0,0)"><path id="e5hfg7mpvm4f7" d="M420.500000,95.100000C426.200000,97.800000,433.700000,104.600000,436,109.100000C437.100000,111.200000,438.400000,116.100000,439,120C441.200000,135.300000,435.100000,149.200000,423.500000,155.300000C417.800000,158.300000,398.400000,159,390.800000,156.500000C377.300000,152.200000,371,141.500000,371,123C371,113.900000,373,109,379,103.300000C383.800000,98.600000,392,93.900000,397,92.900000C402.700000,91.800000,416.100000,93,420.500000,95.100000Z" transform="translate(0,0)" fill="rgb(255,204,170)" stroke="none" stroke-width="0.100000"/></g><g id="e5hfg7mpvm4f8_to" transform="translate(0,0)"><path id="e5hfg7mpvm4f8" d="M257.200000,100C258.400000,100.700000,261.400000,103.100000,263.800000,105.300000C276.900000,118,273.400000,140.200000,257,148.600000C251.400000,151.400000,240.500000,151.600000,232.200000,149.100000C220.500000,145.600000,216,138.400000,216,123C216,109.200000,222.500000,101.400000,235.900000,98.900000C241.800000,97.900000,254.200000,98.500000,257.200000,100Z" transform="translate(0,0)" fill="rgb(255,204,170)" stroke="none" stroke-width="0.100000"/></g><g id="e5hfg7mpvm4f9_to" transform="translate(-42.520000,-162.643152)"><path id="e5hfg7mpvm4f9" d="M576.400000,127.900000C587.500000,133.300000,594.400000,143.500000,595.900000,157.200000C597.500000,171.900000,594.200000,182.800000,585.500000,191.300000C580.500000,196.300000,576,198.500000,568.200000,200C549,203.800000,532.600000,195.900000,524.700000,179.200000C521.700000,172.900000,521.500000,171.800000,521.500000,161.500000C521.500000,151.600000,521.800000,149.900000,524.200000,145C527.400000,138.300000,533.400000,131.900000,539,129C550.300000,123.200000,565.600000,122.800000,576.400000,127.900000Z" transform="translate(0,0)" fill="rgb(255,204,170)" stroke="none" stroke-width="0.100000"/></g><g id="e5hfg7mpvm4f10_to" transform="translate(186.124100,-95.660944)"><path id="e5hfg7mpvm4f10" d="M145.500000,127.400000C150.200000,129.400000,158.700000,137.500000,161.300000,142.500000C163,145.700000,163.500000,148.800000,163.800000,157.500000C164.300000,170.600000,162.400000,177,156,184.300000C150,191.100000,143.800000,193.400000,131.500000,193.500000C122.100000,193.500000,121,193.300000,114.700000,190.200000C106.900000,186.300000,103.700000,182.600000,100.400000,173.400000C98.600000,168.700000,98,164.800000,98,159.100000C98,141.400000,104.900000,131.900000,121.300000,127.500000C128.200000,125.700000,141.100000,125.600000,145.500000,127.400000Z" transform="translate(0,0)" fill="rgb(255,204,170)" stroke="none" stroke-width="0.100000"/></g><g id="e5hfg7mpvm4f11_to" transform="translate(0,0)"><path id="e5hfg7mpvm4f11" d="M480.400000,176C485,177.400000,492.200000,183.800000,496.200000,189.900000C498.900000,194.200000,499,194.800000,499,207.500000C499,220.200000,498.900000,220.700000,496.100000,225.200000C490.300000,234.300000,481.400000,238.900000,467.600000,239.700000C451.100000,240.700000,442,236.100000,436.600000,224.100000C429.900000,209.100000,430.900000,193.400000,439.200000,184.400000C444.600000,178.500000,449,175.900000,455.300000,174.900000C461.800000,173.900000,475.200000,174.500000,480.400000,176Z" transform="translate(0,0)" fill="rgb(255,204,170)" stroke="none" stroke-width="0.100000"/></g></g><g id="e5hfg7mpvm4f12"><path id="e5hfg7mpvm4f13" d="M247.200000,214.500000C247.500000,214.800000,247.100000,217.600000,246.400000,220.800000C245.600000,223.900000,244.700000,231.400000,244.300000,237.300000C243.800000,245.700000,243.300000,248.300000,242.100000,248.900000C241.200000,249.400000,233.500000,250.500000,225,251.500000C191.500000,255.100000,154.900000,261.400000,137.300000,266.600000C132.500000,268.100000,127.700000,269.500000,126.700000,269.700000C124.100000,270.500000,125.100000,272.200000,129.600000,274.700000C139.800000,280.500000,208.100000,292.100000,246,294.500000C251.200000,294.800000,259.300000,295.500000,264,296.100000C279.100000,297.800000,301.500000,298.400000,349,298.400000C393.700000,298.400000,426.200000,297.700000,429.800000,296.600000C430.700000,296.300000,438.900000,295.600000,448,295C477.100000,293.100000,515.500000,287.900000,546.900000,281.500000C573.300000,276.200000,576.500000,275.100000,576.500000,271.900000C576.500000,269.900000,575.600000,269.300000,569,267.300000C561.400000,264.900000,534.100000,259.300000,517.100000,256.600000C512,255.800000,507.300000,254.700000,506.800000,254.200000C506.300000,253.700000,509,248.700000,513.500000,241.900000C517.600000,235.600000,522,229,523.200000,227.200000C527,221.300000,529.500000,221.500000,560.200000,229.500000C593.200000,238.100000,609.400000,246.900000,615.500000,259.500000C617.800000,264.100000,618.200000,266.200000,618.100000,273.500000C618.100000,285.100000,615.600000,290.700000,607,298.100000C600.200000,303.900000,582.100000,320.700000,557.900000,343.500000C490.200000,407.500000,431.900000,464.700000,428.400000,470.700000C425.800000,475,425,480.100000,422,511.500000C420.900000,523.100000,416,567.800000,414,585C413.500000,589.700000,413,603.600000,413,615.900000L413,638.300000L409.500000,642.600000C402.700000,650.900000,390.200000,657.500000,375.500000,660.700000C364.400000,663,334.800000,662.700000,324.500000,660C314.900000,657.500000,305.500000,653.300000,298.800000,648.400000C290.500000,642.300000,290.600000,642.500000,289.900000,609.500000C289.500000,589.200000,288.800000,578,287.700000,572C285.600000,561.300000,280.100000,510.900000,279,492.900000C277.900000,476.400000,275.800000,469.800000,269.500000,463.700000C267.200000,461.400000,256.800000,451.600000,246.500000,442C236.100000,432.400000,213.200000,410.300000,195.400000,393C177.700000,375.700000,152.500000,351.400000,139.500000,339C81.900000,284.300000,83.800000,286.500000,83.700000,274.700000C83.700000,264.700000,86.400000,258.700000,94.600000,251.100000C98.100000,247.800000,103.900000,243.500000,107.600000,241.400000C119.500000,234.700000,144.800000,226.900000,170,222.100000C192.600000,217.800000,245.300000,212.600000,247.200000,214.500000Z" fill="rgb(255,255,255)" stroke="none" stroke-width="0.100000"/></g><g id="e5hfg7mpvm4f14"><path id="e5hfg7mpvm4f15" d="M504,324.600000C461.300000,331.100000,409.200000,334.500000,354,334.400000C298.700000,334.300000,263,332.200000,191.600000,324.900000C185.300000,324.300000,180.400000,324.200000,179.900000,324.700000C178.400000,326.200000,212.600000,360.300000,218,362.800000C225.600000,366.400000,258.600000,371.300000,295,374.200000C313.600000,375.800000,386.100000,375.800000,405,374.200000C427.200000,372.400000,438.600000,371.300000,449.500000,369.600000C455,368.800000,461.800000,367.800000,464.500000,367.500000C474.500000,366.200000,482.900000,363.800000,487.200000,361C489.600000,359.400000,494.400000,354.700000,497.900000,350.500000C501.400000,346.300000,507.200000,340.600000,510.800000,337.900000C518.700000,332,527,324.300000,527,323C527,321.500000,521.200000,321.900000,504,324.600000Z" fill="rgb(255,127,42)" stroke="none" stroke-width="0.100000"/><path id="e5hfg7mpvm4f16" d="M267.600000,407.900000C267.300000,408.300000,268,409.600000,269.100000,410.600000C270.300000,411.700000,274.100000,416.200000,277.600000,420.600000C286.700000,432.200000,294.800000,439.400000,301.700000,442C315.600000,447.200000,318.400000,447.500000,352.500000,447.500000C382.500000,447.400000,385,447.300000,392.400000,445.200000C402.300000,442.400000,407.200000,439.600000,414.600000,432.200000C422.700000,424.200000,435.400000,409.100000,434.700000,408.300000C433.600000,407.200000,424.900000,407.500000,412,409C403.100000,410,388,410.500000,360,410.500000C322.300000,410.500000,271.200000,408.900000,269.100000,407.600000C268.600000,407.200000,267.900000,407.400000,267.600000,407.900000Z" fill="rgb(255,127,42)" stroke="none" stroke-width="0.100000"/><path id="e5hfg7mpvm4f17" d="M314.400000,491C315.600000,507,317,508.600000,333.700000,511.500000C345.800000,513.700000,359.400000,513.600000,371.900000,511.100000C386.300000,508.300000,386.400000,508.200000,387.800000,496.600000C388.500000,491.400000,389,485.900000,389,484.400000L389,481.700000L374.800000,482.500000C356.100000,483.600000,343.500000,483.600000,327.100000,482.500000L313.700000,481.700000Z" fill="rgb(255,127,42)" stroke="none" stroke-width="0.100000"/><path id="e5hfg7mpvm4f18" d="M321,546.100000C321,546.300000,321.700000,551.400000,322.500000,557.500000C323.300000,563.500000,324,571.500000,324,575.100000L324,581.700000L336.200000,582.300000C350.800000,583.100000,363.700000,583.100000,370.500000,582.200000L375.500000,581.500000L376.700000,576C378.500000,567.900000,381.400000,547.100000,380.800000,546.500000C380.500000,546.200000,377.400000,546.400000,373.900000,547C358,549.500000,341.100000,549.300000,324.300000,546.400000C322.500000,546,321,545.900000,321,546.100000Z" fill="rgb(255,127,42)" stroke="none" stroke-width="0.100000"/></g></svg>