<svg id="e0mdkwsgru2kf1" xmlns="http://www.w3.org/2000/svg" xmlns:xlink="http://www.w3.org/1999/xlink" viewBox="0 0 700 700" shape-rendering="geometricPrecision" text-rendering="geometricPrecision"><style><![CDATA[#e0mdkwsgru2kf3_to {animation: e0mdkwsgru2kf3_to__to 3000ms linear infinite normal forwards}@keyframes e0mdkwsgru2kf3_to__to { 0% {transform: translate(0px,-399.550766px)} 66.666667% {transform: translate(0px,-399.550766px)} 70% {transform: translate(0px,0px)} 93.333333% {transform: translate(0px,0px)} 96.666667% {transform: translate(0px,599.999234px)} 100% {transform: translate(0px,599.999234px)} }#e0mdkwsgru2kf6_to {animation: e0mdkwsgru2kf6_to__to 3000ms linear infinite normal forwards}@keyframes e0mdkwsgru2kf6_to__to { 0% {transform: translate(0px,-500.618347px)} 43.333333% {transform: translate(0px,-500.618347px)} 46.666667% {transform: translate(0px,0px)} 93.333333% {transform: translate(0px,0px)} 96.666667% {transform: translate(0px,600.001653px)} 100% {transform: translate(0px,600.001653px)} }#e0mdkwsgru2kf9_to {animation: e0mdkwsgru2kf9_to__to 3000ms linear infinite normal forwards}@keyframes e0mdkwsgru2kf9_to__to { 0% {transform: translate(0px,-606.617126px)} 20% {transform: translate(0px,-606.617126px)} 23.333333% {transform: translate(0px,0px)} 93.333333% {transform: translate(0px,0px)} 96.666667% {transform: translate(0px,600.002874px)} 100% {transform: translate(0px,600.002874px)} }]]></style><path id="e0mdkwsgru2kf2" d="M273.725682,-0.396995C271.225682,0.103005,265.825682,1.303005,261.725682,2.403005C257.625682,3.503005,252.225682,4.603005,249.725682,5.003005C247.325682,5.403005,244.325682,6.203005,243.225682,7.003005C242.125682,7.703005,239.425682,8.603005,237.225682,8.903005C235.025682,9.303005,229.625682,10.803005,225.225682,12.103005C211.125682,16.603005,202.325682,19.503005,200.225682,20.403005C199.125682,20.903005,195.625682,22.203005,192.525682,23.303005C189.325682,24.403005,185.925682,25.803005,185.025682,26.303005C184.025682,26.803005,178.725682,29.303005,173.225682,32.003005C158.225682,39.403005,146.125682,46.203005,137.225682,52.303005C132.825682,55.303005,126.525682,59.703005,123.125682,62.003005C114.725682,67.803005,108.125682,72.803005,101.925682,78.303005C92.325682,86.803005,61.325682,118.003005,57.225682,123.403005C55.025682,126.303005,51.725682,130.303005,49.925682,132.303005C45.725682,136.803005,29.925682,159.303005,28.025682,163.403005C27.725682,164.203005,25.925682,167.003005,24.125682,169.603005C21.525682,173.403005,6.725682,202.703005,1.125682,214.903005C-3.574318,225.303005,-10.674318,246.603005,-13.274318,257.903005C-14.274318,262.303005,-15.774318,267.903005,-16.574318,270.403005C-18.574318,276.303005,-20.974318,289.903005,-22.574318,303.203005C-24.174318,317.403005,-24.174318,373.703005,-22.474318,392.903005C-21.074318,409.003005,-17.574318,432.303005,-16.274318,433.903005C-15.774318,434.403005,-14.474318,438.503005,-13.374318,442.903005C-9.974318,456.103005,-7.174318,465.703005,-6.474318,466.803005C-5.774318,468.003005,-1.874318,478.603005,-0.174318,484.203005C1.625682,489.903005,23.325682,532.203005,26.625682,536.303005C28.325682,538.403005,29.725682,540.503005,29.725682,540.803005C29.725682,542.103005,42.125682,560.103005,47.625682,566.803005C63.125682,586.003005,84.925682,608.303005,99.425682,620.003005C104.825682,624.303005,112.025682,630.103005,115.425682,632.903005C123.925682,639.803005,129.925682,644.103005,133.425682,645.903005C135.125682,646.803005,137.025682,648.103005,137.725682,648.903005C138.425682,649.703005,139.525682,650.403005,140.125682,650.403005C140.825682,650.403005,142.425682,651.503005,143.725682,652.903005C145.025682,654.303005,146.425682,655.403005,146.725682,655.403005C147.125682,655.403005,151.025682,657.403005,155.325682,659.903005C159.725682,662.303005,169.125682,666.803005,176.225682,669.903005C183.425682,673.003005,190.125682,675.903005,191.225682,676.403005C199.625682,680.103005,218.725682,686.603005,232.225682,690.403005C236.625682,691.603005,243.125682,693.403005,246.725682,694.403005C250.325682,695.403005,255.025682,696.603005,257.225682,697.003005C263.625682,698.403005,387.225682,698.003005,393.725682,696.603005C411.925682,692.803005,450.525682,682.303005,453.225682,680.403005C453.825682,680.003005,455.625682,679.403005,457.225682,679.003005C458.925682,678.603005,462.925682,677.003005,466.225682,675.403005C469.525682,673.903005,474.225682,671.803005,476.725682,670.803005C479.225682,669.903005,484.425682,667.603005,488.225682,665.803005C492.125682,664.103005,499.025682,660.803005,503.725682,658.703005C510.425682,655.503005,535.225682,638.603005,537.725682,635.403005C538.025682,635.103005,543.825682,630.303005,550.725682,624.803005C562.625682,615.203005,587.625682,592.003005,596.325682,582.403005C598.625682,579.903005,601.625682,576.103005,603.025682,573.903005C604.425682,571.703005,607.225682,567.603005,609.225682,564.903005C611.225682,562.103005,615.825682,555.403005,619.425682,549.903005C623.025682,544.403005,628.525682,536.103005,631.625682,531.403005C634.725682,526.703005,638.225682,520.903005,639.425682,518.403005C640.725682,515.903005,643.925682,510.303005,646.725682,505.903005C649.425682,501.503005,651.725682,497.503005,651.725682,497.103005C651.725682,496.603005,652.525682,495.003005,653.625682,493.603005C654.625682,492.103005,655.725682,489.503005,656.025682,487.903005C656.825682,483.703005,661.325682,467.503005,662.725682,463.903005C664.825682,458.403005,672.525682,426.503005,673.425682,419.103005C673.725682,417.103005,674.325682,415.103005,674.825682,414.803005C676.025682,414.103005,676.025682,290.803005,674.825682,288.603005C674.325682,287.603005,673.425682,283.703005,672.825682,279.903005C671.625682,272.203005,669.525682,262.103005,667.725682,255.903005C667.125682,253.703005,665.925682,249.003005,665.225682,245.403005C664.425682,241.803005,663.225682,237.103005,662.425682,234.903005C661.725682,232.703005,660.425682,228.003005,659.725682,224.403005C659.025682,220.803005,657.925682,217.203005,657.225682,216.403005C656.625682,215.603005,655.625682,213.803005,654.925682,212.403005C654.225682,211.003005,653.325682,209.203005,652.825682,208.403005C652.325682,207.603005,650.425682,204.003005,648.725682,200.503005C647.025682,197.103005,644.825682,192.803005,643.825682,191.003005C642.825682,189.303005,640.525682,185.203005,638.725682,181.903005C636.825682,178.603005,634.325682,174.503005,633.125682,172.903005C631.925682,171.203005,629.725682,167.403005,628.125682,164.403005C624.525682,157.303005,616.925682,146.103005,608.525682,135.403005C604.825682,130.703005,600.425682,125.103005,598.725682,122.903005C592.425682,114.703005,563.625682,86.503005,551.825682,76.903005C538.525682,66.103005,525.825682,56.803005,521.125682,54.503005C519.525682,53.703005,516.625682,51.903005,514.725682,50.503005C507.925682,45.403005,493.925682,38.003005,472.325682,27.903005C459.525682,22.003005,417.725682,8.403005,412.225682,8.403005C411.125682,8.403005,409.025682,7.703005,407.425682,6.903005C405.925682,6.203005,401.425682,5.003005,397.325682,4.503005C393.325682,3.903005,388.825682,3.003005,387.225682,2.403005C378.925682,-0.796995,364.725682,-1.596995,321.525682,-1.496995C297.725682,-1.396995,276.225682,-0.896995,273.725682,-0.396995Z" transform="matrix(1 0 0 1 23 0)" fill="rgb(255,57,0)" stroke="none" stroke-width="0.100000"/><g id="e0mdkwsgru2kf3_to" transform="translate(0,-399.550766)"><g id="e0mdkwsgru2kf3" transform="translate(0,0)"><path id="e0mdkwsgru2kf4" d="M527,200.900000C546.300000,202.400000,547.600000,203,541.900000,207.100000C538.800000,209.300000,538,209.300000,518.100000,209.100000C506.800000,209,442.400000,208.800000,375,208.700000C273.600000,208.500000,251.600000,208.700000,247,209.900000C244,210.600000,241.100000,211.600000,240.500000,212C240,212.400000,238.400000,213,237,213.300000C235.600000,213.700000,231.700000,216.400000,228.400000,219.300000C222.600000,224.600000,220,229,217.100000,238.100000C214.600000,246,216.500000,260.500000,221.100000,269.200000C223.500000,273.700000,231.300000,280.900000,236.400000,283.400000C247.700000,288.800000,246.200000,288.800000,421.500000,289.500000C485.900000,289.700000,540.200000,290.200000,542.300000,290.600000C544.300000,290.900000,546,291.500000,546,291.900000C546,292.800000,539.300000,294.500000,527,296.700000C517.200000,298.400000,507,298.500000,375,298.700000L233.500000,299L224.300000,290.700000C215.100000,282.600000,207.600000,273.800000,204,266.900000C196.600000,252.800000,200.600000,229.500000,212.700000,216C218,210.100000,223,207,232,204.200000C240,201.600000,245,201,261.500000,200.100000C283.800000,199,512.100000,199.700000,527,200.900000Z" fill="rgb(0,0,0)" stroke="none" stroke-width="0.100000"/><path id="e0mdkwsgru2kf5" d="M525.700000,215.600000C532.400000,216,535,216.600000,535.400000,217.600000C535.700000,218.400000,535.600000,218.900000,535.100000,218.500000C534.600000,218.200000,534,218.500000,533.800000,219.200000C533.400000,220.200000,512.700000,220.500000,436.400000,220.600000C350.800000,220.600000,534.300000,216.200000,530,217.600000C528.100000,218.200000,526.500000,233.600000,528.600000,234.400000C529.500000,234.800000,511.400000,228.800000,525.700000,229.900000C531.752458,231.380602,378.400000,230.300000,431.700000,229.900000C464.400000,229.600000,516.500000,230.600000,527,229.900000C529.771858,231.474591,533.200000,228.900000,531.100000,231.400000C530.500000,232.100000,530.200000,233.500000,530.600000,234.400000C531.200000,235.800000,523.700000,236,440.900000,235.900000C338,235.700000,529.500000,232,527,234.400000C525.400000,236.100000,526.300000,246.200000,527.900000,247.800000C529.500000,249.400000,339.400000,243.500000,389.300000,243.700000C519.958469,244.500000,532.300000,244.400000,532.700000,246C533.100000,247.200000,522.779234,246.241804,532.200000,246.200000C520.001639,247.435793,531.100000,245.600000,530.700000,247.800000L530.100000,250.700000L519,251.300000C512.900000,251.600000,480.100000,251.600000,446.200000,251.300000C383.200000,250.700000,529.200000,246.975381,526.500000,249.275381C524.700000,250.775381,525.100000,263.600000,527,264.300000C529.300000,265.200000,375.800000,260.500000,454.200000,260.100000C492.500000,259.900000,525.500000,260.100000,527.500000,260.400000C530.900000,261.100000,531.100000,261.300000,530.800000,264.300000L530.500000,267.500000L433,268C352.100000,268.400000,528.700000,265.800000,526.500000,266.900000C523.800000,268.300000,525.300000,276.900000,527,278C530,279.800000,478.100000,277.800000,517.100000,276.200000L532.700000,275.500000L532.700000,278C532.600000,279.400000,532.900000,281.200000,533.300000,282C533.900000,283.300000,519.300000,283.500000,404.300000,283.300000C257.200000,283,249,282.700000,237.200000,276.600000C230,272.900000,222,258.300000,222,249.100000C222,239,227.300000,228.100000,234.700000,222.800000C242,217.600000,246.600000,216.200000,260,215C269.900000,214.200000,512.100000,214.700000,525.700000,215.600000Z" fill="rgb(255,255,255)" stroke="none" stroke-width="0.100000"/></g></g><g id="e0mdkwsgru2kf6_to" transform="translate(0,-500.618347)"><g id="e0mdkwsgru2kf6" transform="translate(0,0)"><path id="e0mdkwsgru2kf7" d="M246.982420,400.835940C245.634510,400.851340,244.850780,400.883640,244.800780,400.933540C244.667450,401.066880,240.666670,401.333410,236,401.466750C231.200000,401.600080,226.800000,402.133150,226,402.533150C225.333330,402.933150,221.999350,403.466230,218.666020,403.599560C208.799350,403.999560,208.133980,404.133410,207.333980,405.466750C206.800650,406.133410,206.000650,406.399950,205.333980,405.999950C202.800650,404.399950,197.600260,408.133410,194.933590,413.466750C193.333590,416.533410,192.400780,419.599430,192.800780,420.132760C193.200780,420.799430,202.132680,420.932630,212.666020,420.665970L232,420.132810L232.441410,421.015620C263.824820,420.788020,346.165780,420.677410,427.363280,420.800780C568.682170,420.800780,588.353170,421.066930,599.398440,422.933590C614.831540,425.733590,621.186660,428.533070,631.021480,437.066410C641.007620,445.733070,646,456.666150,646,470.132810C646,475.332810,645.243780,481.067450,644.335940,482.800780C643.428110,484.534110,641.612780,488.132680,640.402340,490.666020C636.619720,498.266020,625.877380,507.999220,617.404300,511.199220C598.339870,518.665890,598.792880,518.666020,422.673830,518.666020C317.998370,518.752120,254.115510,518.390740,221.861330,517.550780C219.970450,517.950760,218.176860,518.374640,216.666020,518.800780C211.599350,520.267450,204.933330,522.133070,202,523.066410C190.933330,526.133070,190.934250,527.334110,202.267580,530.800780C208.000910,532.534110,213.599350,534.000910,214.666020,534.267580C215.732680,534.400910,218.800650,534.799220,221.333980,535.199220C223.867320,535.599220,229.066020,536.266020,232.666020,536.666020C236.399350,537.066020,240.934110,537.732810,242.800780,538.132810C248.800780,539.332810,341.200000,539.599870,354,538.533200C360.666670,537.866540,417.599350,537.333980,480.666020,537.333980C610.532680,537.200650,630.799610,536.533850,637.599610,531.867190C644.932940,526.800520,667.600650,502.800910,669.333980,498.267580C670.133980,495.867580,671.866410,492.000130,673.066410,489.466800C674.666410,486.133460,675.199220,481.333460,675.199220,469.466800C675.199220,454.266800,675.066150,453.866280,670.132810,443.599610C667.066150,437.466280,661.865760,429.732550,657.732420,425.199220C653.599090,420.932550,650.800650,417.333980,651.333980,417.333980C651.733980,417.333980,650.267190,415.732940,647.867190,413.599610C645.467190,411.599610,643.066540,410.134240,642.533200,410.267580C641.999870,410.400910,641.733850,409.600390,641.867190,408.400390C641.867190,407.200390,640.666020,405.999610,638.666020,405.599610C636.799350,405.199610,561.600650,404.666540,471.333980,404.533200C381.200650,404.266540,306.400650,403.599740,305.333980,403.066410C304.267320,402.533070,301.199350,402.000520,298.666020,401.867190C293.416020,401.400520,256.417840,400.728390,246.982420,400.835940Z" transform="matrix(0.75000000000000 0 0 0.75000000000000 0 0)" fill="rgb(0,0,0)" stroke="none" stroke-width="0.133333"/><path id="e0mdkwsgru2kf8" d="M525.700000,215.512876C532.400000,215.878055,535,216.425825,535.400000,217.338773C535.700000,218.069133,535.600000,218.525607,535.100000,218.160427C534.600000,217.886543,534,218.160427,533.800000,218.799492C533.400000,219.712440,482.045412,255.406444,525.700000,215.512876C527.777651,222.739056,514.830874,235.120677,510.530874,236.398805C508.630874,236.946574,315.700000,225.646608,317.800000,226.376967C318.700000,226.742146,336.942007,223.794461,351.242007,224.798705C374.542007,226.442013,377.700000,230.576531,431,230.211352C463.700000,229.937467,499.100000,229.207108,509.600000,228.568044C529.300000,227.381210,533.200000,227.655095,531.100000,229.937467C530.500000,230.576531,530.200000,231.854659,530.600000,232.676313C531.200000,233.954442,543.867689,231.490585,461.067689,231.399290C546.530115,228.326228,528.200000,237.149762,525.700000,239.340839C524.100000,240.892852,389.027695,255.704699,333.300000,239.340839C334.900000,240.801558,354.400000,232.493724,404.300000,232.676313C555.400000,233.406672,532.300000,241.805801,532.700000,243.266519C533.100000,244.362058,533,244.362058,532.200000,243.449109C531.500000,242.536160,531.100000,242.901340,530.700000,244.909827L530.100000,247.557379L519,248.105148C512.900000,248.379033,480.100000,248.379033,446.200000,248.105148C383.200000,247.557379,524.136632,243.800000,521.436631,245.899782C519.636632,247.269206,528.135708,270.445525,525.700000,262.894918C528,263.716572,375.800000,256.504277,454.200000,256.139097C492.500000,255.956508,525.500000,256.139097,527.500000,256.412982C530.900000,257.052046,531.100000,257.234636,530.800000,259.973482L530.500000,262.894918L433,263.351393C352.100000,263.716572,515.867104,258.969239,513.667104,259.973482C510.967104,261.251611,525.800000,258.969239,527.500000,259.973482C530.500000,261.616790,537.765006,276.350325,525.700000,272.480881L532.700000,270.198509L532.700000,272.480881C532.600000,273.759009,532.900000,275.402317,533.300000,276.132676C533.900000,277.319509,519.300000,277.502099,404.300000,277.319509C257.200000,277.045625,249,276.771740,237.200000,271.202752C230,267.824842,222,254.495790,222,246.096661C222,236.875878,227.300000,226.924736,234.700000,222.086107C242,217.338773,246.600000,216.060645,260,214.965107C269.900000,214.234748,512.100000,214.691222,525.700000,215.512876Z" transform="matrix(-1 0 -0 -1 695.76768900000002 598.49938990999988)" fill="rgb(255,255,255)" stroke="none" stroke-width="0.100000"/></g></g><g id="e0mdkwsgru2kf9_to" transform="translate(0,-606.617126)"><g id="e0mdkwsgru2kf9" transform="translate(0,0)"><path id="e0mdkwsgru2kf10" d="M512,408.100000C527.400000,409.200000,541.900000,411.100000,549.400000,413.100000L553.300000,414.200000L547.400000,416.600000C541.600000,419,541.200000,419,526.500000,418C509.100000,416.800000,277.300000,416,259.800000,417.100000C235.600000,418.600000,223.300000,426.500000,217.900000,444.300000C211,467.100000,223.700000,490.200000,246,495.100000C253.200000,496.700000,463.800000,497.500000,504.800000,496.100000L539.200000,494.900000L543.600000,497.500000C547.300000,499.700000,550,502.500000,550,504.300000C550,505.700000,531.200000,506,401,507C299.900000,507.800000,256.400000,507.700000,251.400000,507C241.300000,505.500000,230,502.600000,226,500.500000C217.100000,495.900000,208.900000,486,204,473.900000C201.800000,468.500000,201.800000,467.800000,202.900000,457.900000C205,439.900000,210,417.300000,212.200000,415.900000C212.800000,415.500000,216.700000,414.900000,220.900000,414.500000C229.400000,413.800000,244,411.700000,257.500000,409.300000C265.200000,407.900000,280.600000,407.600000,361.500000,407C464.300000,406.300000,488.200000,406.500000,512,408.100000Z" fill="rgb(0,0,0)" stroke="none" stroke-width="0.100000"/><path id="e0mdkwsgru2kf11" d="M512.800000,423.600000C519,423.900000,523.900000,424.400000,523.600000,424.700000C523.300000,425,517.300000,425.900000,510.300000,426.800000C500,428,539.974945,436.156264,499.725682,436C509.697752,437.159078,507.599608,439.500000,502.599608,440C494.399608,440.700000,493.599315,430.700000,493.299315,432.700000C522.802095,432.295100,511,432,514.200000,432.700000C517.600000,433.500000,497.300000,440.600000,519,442.300000C523.600000,442.700000,395.200000,440.700000,420,440C457.300000,438.900000,469,438.900000,488.300000,440C506.400000,441.100000,510.600000,441.600000,507.500000,442.300000C505.300000,442.800000,535.720003,455.746613,502.000485,457.900000C406.400485,458.600000,523.600000,452.800000,523.600000,456.900000C523.600000,458.900000,505.100000,455.200000,517.100000,456.900000C526.800000,458.300000,352.600000,454.300000,419.500000,454.300000C462.400000,454.300000,505,454,514.200000,453.500000L531,452.800000L530.800000,456.900000C530.700000,460.500000,530.400000,460.900000,528.600000,460.500000C527.400000,460.300000,500.600000,459.600000,468.900000,459C409,457.800000,530.865780,458.002594,535.568750,457.090129C515.768750,458.290129,528.100000,464.300000,531.800000,468C533.300000,469.500000,514.892670,470.264769,525.700000,470.300000C540.295669,479.931705,510.787257,481.413548,514.200000,473.900000L514.200000,468L530,471.400000L530,474.700000L522.800000,475.400000C518.800000,475.800000,551.900000,484.800000,514.200000,484.400000C449.900000,483.900000,521.400000,482.503005,517.100000,484.203005C516,484.703005,523.701117,489.746952,502.000485,484.203005C510.969485,475.608953,520.900000,487.203005,530,487.903005C535.500000,488.303005,382.400000,484.200000,433.600000,484.400000C484.800000,484.600000,527.200000,485,527.900000,485.400000C528.600000,485.800000,529.900000,485.600000,530.800000,484.900000C531.700000,484.200000,532.200000,483.900000,531.800000,484.400000C531.400000,484.900000,531.500000,486.100000,532,487C532.900000,488.600000,532,488.800000,520.700000,489.400000C498.200000,490.400000,488.900000,490.500000,374,490.300000C303.100000,490.200000,256.700000,489.700000,252.300000,489.100000C239.400000,487.300000,230.700000,481.200000,225.400000,470.300000C220.200000,459.800000,222.100000,446.200000,230.200000,436C236.800000,427.700000,245.500000,424.300000,263,423.100000C275,422.300000,497.600000,422.700000,512.800000,423.600000Z" fill="rgb(255,255,255)" stroke="none" stroke-width="0.100000"/></g></g></svg>