<svg id="echeieqmmhph1" xmlns="http://www.w3.org/2000/svg" xmlns:xlink="http://www.w3.org/1999/xlink" viewBox="0 0 700 702" shape-rendering="geometricPrecision" text-rendering="geometricPrecision"><style><![CDATA[#echeieqmmhph4_to {animation: echeieqmmhph4_to__to 20000ms linear infinite normal forwards}@keyframes echeieqmmhph4_to__to { 0% {transform: translate(350px,351px)} 0.050000% {transform: translate(350px,351px)} 13.500000% {transform: translate(315px,351px)} 27.500000% {transform: translate(322.541466px,323.238367px)} 37.500000% {transform: translate(333.371066px,317.078962px)} 54.500000% {transform: translate(350px,312.120482px)} 65.500000% {transform: translate(364.044727px,318.371065px)} 74.500000% {transform: translate(380.042741px,330.990990px)} 85.500000% {transform: translate(385px,351px)} 99.950000% {transform: translate(350px,351px)} 100% {transform: translate(350px,351px)} }]]></style><path id="echeieqmmhph2" d="M320,2.600000C312.600000,3.200000,302.500000,4.500000,297.500000,5.400000C292.600000,6.200000,286,7.400000,283,7.900000C247.700000,14,203.100000,31.300000,167.900000,52.500000C142.700000,67.800000,109.100000,95,94.200000,112.400000C72.600000,137.600000,63.900000,148.800000,54.900000,163.500000C32,200.600000,16.400000,239,8.600000,277.700000C2.300000,308.700000,1,320.800000,1,349.600000C1,376,2.800000,395,7.700000,419C8.600000,423.100000,9.500000,427.600000,9.700000,429C10,430.400000,10.800000,433.500000,11.500000,436C12.200000,438.500000,13.300000,442.500000,14,445C24.200000,481.500000,47.500000,529.700000,67.600000,555.600000C69.700000,558.400000,72.800000,562.400000,74.500000,564.600000C82.100000,574.600000,98.500000,593.200000,105.600000,600C133.700000,626.700000,166.300000,649.400000,198.500000,664.500000C246.800000,687.300000,291,697.700000,344.600000,698.700000C369.500000,699.200000,381.700000,698.400000,403,694.900000C441.600000,688.500000,474.500000,677.800000,508.500000,660.500000C550.400000,639.300000,587.400000,609.800000,616.600000,574.500000C632.300000,555.500000,633.400000,554.100000,640.200000,543.500000C663.700000,506.900000,682.700000,461.700000,690.400000,423.800000C696.900000,391.900000,698.400000,374.500000,697.700000,339C697.200000,311.800000,696.900000,309.600000,690.400000,277C689.700000,273.400000,687.300000,263.800000,684.600000,254C676.100000,222.700000,654.800000,178,635.100000,150C629.700000,142.300000,625,136.500000,611.900000,121C596.600000,102.900000,584.600000,91.800000,557,70.300000C534,52.300000,491.800000,30.300000,460,19.700000C448.600000,15.900000,424.300000,9.600000,414.500000,8C375.300000,1.300000,349.200000,-0.200000,320,2.600000Z" fill="rgb(0,130,201)" stroke="none" stroke-width="0.100000"/><g id="echeieqmmhph3" clip-path="none"><g id="echeieqmmhph4_to" transform="translate(350,351)"><g id="echeieqmmhph4" transform="translate(-349.320511,-350.651291)"><g id="echeieqmmhph5"><path id="echeieqmmhph6" d="M376,211.400000C404.300000,217.200000,426.200000,228.600000,446.500000,248.200000C462.500000,263.600000,474.200000,280.800000,481.500000,299.600000C483.500000,304.800000,485.500000,309,486,309C486.500000,309,488.900000,305.900000,491.400000,302.200000C504.200000,283.200000,519.100000,271.300000,540,263.400000C547.300000,260.600000,547.900000,260.600000,568.500000,260.500000C589.200000,260.500000,589.600000,260.500000,597,263.400000C621.900000,272.800000,639.400000,288.100000,650,309.500000C657.900000,325.500000,659.500000,332.600000,659.400000,351C659.400000,364.900000,659.100000,367.400000,656.700000,375.300000C646.900000,407.300000,623.400000,430,590.800000,439.100000C581.100000,441.800000,556.400000,441.800000,545.900000,439.100000C536.700000,436.700000,526.500000,432.100000,518,426.400000C509.800000,420.900000,497.600000,408.600000,491.500000,399.500000C488.900000,395.600000,486.300000,392.500000,485.700000,392.500000C485.100000,392.500000,483.700000,394.700000,482.700000,397.500000C479.700000,405.800000,471.500000,422,465.900000,430.500000C459.500000,440.300000,441.400000,458.600000,430.500000,466.200000C407,482.600000,377.400000,492,349.300000,492C337.500000,492,326.400000,490.200000,307.500000,485.100000C281.100000,477.900000,250.700000,455,233.700000,429.400000C227.300000,419.800000,218.600000,402.700000,216.100000,394.700000C215.400000,392.700000,214.300000,391,213.700000,391C213,391,210,394.900000,207,399.600000C192,423.100000,166.500000,438.600000,139,441C112.600000,443.400000,93.500000,437.500000,72,420.400000C64.200000,414.200000,61.700000,411.500000,55.800000,403C36.900000,375.900000,34,342.100000,48,311.400000C60.100000,284.600000,85.800000,265.300000,116,260.400000C138.300000,256.800000,158.700000,260.800000,177.800000,272.600000C190.700000,280.600000,206.200000,297.200000,210.600000,307.600000C211.400000,309.500000,212.500000,311,213.100000,310.800000C213.700000,310.600000,215.800000,306.400000,217.900000,301.500000C228.500000,276.400000,236.700000,264.200000,254.300000,247.400000C264.500000,237.600000,275.900000,229.500000,288,223.500000C297.200000,218.900000,316.200000,212.600000,325.500000,211.100000C329.400000,210.500000,333.600000,209.800000,335,209.600000C340.200000,208.700000,368.800000,210,376,211.400000Z" fill="rgb(255,255,255)" stroke="none" stroke-width="0.100000"/><path id="echeieqmmhph7" d="M326,264.600000C296.200000,273.400000,273.500000,296.300000,264.400000,326.500000C262.100000,334.500000,261.800000,337.200000,261.700000,350.500000C261.700000,364,261.900000,366.400000,264.300000,374.300000C273.800000,405.500000,296,427.800000,326.200000,436.300000C337.200000,439.400000,349.500000,440.400000,359.900000,439C397.100000,434,426,408.800000,436.100000,372.500000C437.900000,365.900000,438.300000,362,438.300000,350C438.200000,337.300000,437.900000,334.400000,435.600000,326.700000C430.900000,311,424.900000,300.800000,413.100000,288.700000C400.800000,276,387.500000,268.100000,371.600000,264C359.400000,260.900000,337.500000,261.200000,326,264.600000Z" fill="rgb(0,130,201)" stroke="none" stroke-width="0.100000"/><path id="echeieqmmhph8" d="M119.400000,312.400000C112.600000,314.700000,109.300000,316.800000,103,322.900000C94.700000,331.100000,92.800000,335.800000,92.200000,349.700000C91.800000,360.800000,91.800000,360.900000,95.100000,367.200000C99.600000,375.600000,106.100000,381.900000,114.500000,386.100000C120.900000,389.200000,122.200000,389.500000,130.500000,389.500000C138.100000,389.500000,140.400000,389,145.300000,386.800000C152.800000,383.300000,160.900000,375.500000,165.100000,367.700000C168.300000,361.700000,168.500000,361.100000,168.500000,350.500000C168.500000,340.300000,168.300000,339,165.600000,333.500000C161.600000,325.500000,154.500000,318.600000,146.200000,314.700000C140.600000,312.100000,138.100000,311.500000,131.500000,311.300000C126.900000,311.200000,121.700000,311.700000,119.400000,312.400000Z" fill="rgb(0,130,201)" stroke="none" stroke-width="0.100000"/><path id="echeieqmmhph9" d="M558.500000,312.400000C547,316,538.700000,323.200000,533.700000,333.800000C530.800000,339.900000,530.500000,341.300000,530.500000,350.500000C530.500000,359.700000,530.800000,361.100000,533.700000,367.200000C537.700000,375.700000,543.900000,381.900000,552.600000,386.100000C558.900000,389.100000,560.300000,389.500000,568.500000,389.500000C576.600000,389.500000,578.200000,389.100000,584.100000,386.200000C588.700000,384,592.600000,381,596.800000,376.600000C604.800000,368,607.400000,361.500000,607.500000,350C607.500000,342.500000,607.100000,340.700000,604.300000,334.800000C598.900000,323.300000,589.800000,315.400000,578.600000,312.400000C572.300000,310.700000,563.800000,310.700000,558.500000,312.400000Z" fill="rgb(0,130,201)" stroke="none" stroke-width="0.100000"/></g></g></g></g></svg>