<svg id="e9b22cbc52a1" xmlns="http://www.w3.org/2000/svg" xmlns:xlink="http://www.w3.org/1999/xlink" viewBox="0 0 700 700" shape-rendering="geometricPrecision" text-rendering="geometricPrecision"><style><![CDATA[#e9b22cbc52a1{pointer-events: all}#e9b22cbc52a1:hover #e9b22cbc52a6_to {animation: e9b22cbc52a6_to__to 900ms linear infinite normal forwards}@keyframes e9b22cbc52a6_to__to { 0% {transform: translate(0px,0px)} 33.333333% {transform: translate(0px,40px)} 77.777778% {transform: translate(0px,-20px)} 100% {transform: translate(0px,0px)} }]]></style><g id="e9b22cbc52a2"><path id="e9b22cbc52a3" d="M318,3.600000C301.100000,5,272.700000,10.400000,255.500000,15.500000C217.200000,26.800000,178.900000,45.600000,146.500000,69C89.800000,110,45,170.600000,21.500000,238C16.300000,252.900000,9.600000,280.700000,6.500000,300C3.900000,316.200000,3.800000,317.100000,4.300000,354.500000C4.700000,389.700000,4.900000,393.600000,7.300000,407.500000C21,486.900000,61.200000,558.800000,121.500000,612C177.100000,661,252.800000,693.300000,321,697.200000C344.200000,698.500000,389.100000,697.500000,402,695.500000C423.100000,692.100000,447.200000,686.200000,463,680.500000C483.100000,673.300000,489.200000,670.800000,507,661.900000C563.700000,633.700000,613.400000,588.700000,646.700000,535.300000C658.300000,516.700000,671.700000,489.500000,679.500000,468.600000C688,445.500000,696.500000,407.600000,698,385.500000C699.500000,364.300000,699.200000,322.100000,697.500000,308.200000C685.300000,210,630.600000,119.900000,549,63.800000C512.600000,38.800000,469.600000,19.900000,427.500000,10.500000C398.700000,4.100000,395,3.700000,357.500000,3.500000C338.300000,3.400000,320.500000,3.400000,318,3.600000Z" fill="rgb(111,186,27)" stroke="none" stroke-width="0.100000"/></g><g id="e9b22cbc52a4"><g id="e9b22cbc52a5"><g id="e9b22cbc52a6_to" transform="translate(0,0)"><path id="e9b22cbc52a6" d="M400.400000,142.600000C400.700000,143.500000,401,200.300000,401,269L401,393.800000L403.300000,394.600000C404.500000,395,430.300000,395.600000,460.500000,395.900000L515.500000,396.500000L434,478.200000C389.200000,523.200000,352.200000,560,351.700000,560C351.300000,560,314.100000,523.200000,269.200000,478.200000L187.500000,396.500000L242.500000,395.900000C272.800000,395.600000,298.500000,395,299.800000,394.600000L302,393.800000L302,268.100000C302,198.900000,302.300000,142,302.700000,141.700000C303,141.300000,325,141,351.600000,141C394.600000,141,399.900000,141.200000,400.400000,142.600000Z" transform="translate(0,0)" fill="rgb(255,255,255)" stroke="none" stroke-width="0.100000"/></g></g></g></svg>