<svg id="evu6mrxowtb1" xmlns="http://www.w3.org/2000/svg" xmlns:xlink="http://www.w3.org/1999/xlink" viewBox="0 0 700 700" shape-rendering="geometricPrecision" text-rendering="geometricPrecision"><style><![CDATA[#evu6mrxowtb5_tr {animation: evu6mrxowtb5_tr__tr 3000ms linear infinite normal forwards}@keyframes evu6mrxowtb5_tr__tr { 0% {transform: translate(199.528770px,481.728134px) rotate(0deg)} 100% {transform: translate(199.528770px,481.728134px) rotate(360deg)} }]]></style><path id="evu6mrxowtb2" d="M329,2.500000C297,4.500000,273.100000,9.100000,239.500000,19.700000C218.400000,26.500000,180.500000,44.800000,159,58.600000C145,67.600000,115.700000,91.300000,103.500000,103.500000C95.300000,111.600000,67.100000,145.200000,63.300000,151.300000C61.900000,153.600000,59.200000,157.700000,57.500000,160.500000C52.300000,168.300000,49.500000,173.400000,41.300000,189.500000C21.500000,228.400000,13.500000,252.600000,5.400000,298C4.600000,302.700000,3.400000,316.300000,2.700000,328.200000C0.400000,368.900000,4.300000,407.200000,14.100000,442C21.400000,467.700000,25.900000,479.200000,39.700000,507C49.200000,526.100000,51.300000,529.700000,60.500000,544C68,555.500000,92.500000,585.500000,103.500000,596.500000C112,605,145.500000,633.100000,151.900000,637.100000C154.400000,638.600000,159.700000,642,163.500000,644.500000C171.600000,649.700000,199.500000,664.100000,214.300000,670.700000C234.300000,679.600000,255.100000,686,282,691.500000C309.700000,697.300000,338.800000,699.200000,371.200000,697.300000C394.700000,696,403.100000,694.800000,426,689.600000C444.800000,685.300000,452.200000,683.200000,466.500000,678.200000C488.600000,670.400000,522,653.900000,542.500000,640.500000C555.400000,632.200000,585,608,596.500000,596.500000C604.700000,588.400000,632.900000,554.800000,636.700000,548.700000C638.100000,546.400000,640.800000,542.200000,642.500000,539.500000C649.600000,528.700000,662.700000,503.700000,670.700000,485.500000C680.900000,462.700000,688.500000,435.900000,694.600000,402C697.400000,386.200000,698.700000,352.500000,697.300000,328.800000C695.700000,300.100000,692.700000,283,683.600000,250C676.200000,223.200000,658.100000,184.800000,639.500000,156C632,144.500000,607.500000,114.500000,596.500000,103.500000C588,95,554.500000,66.900000,548.100000,62.900000C545.600000,61.400000,540.400000,58,536.500000,55.500000C528.400000,50.300000,500.500000,35.900000,485.700000,29.300000C451.400000,14.100000,407.800000,4,370,2.500000C360.400000,2.200000,351.800000,1.700000,351,1.600000C350.200000,1.400000,340.300000,1.900000,329,2.500000Z" fill="rgb(72,187,241)" stroke="none" stroke-width="0.100000"/><path id="evu6mrxowtb3" d="M358.700000,65.900000C361.300000,68.100000,395.600000,102,434.900000,141.400000C474.200000,180.800000,506.700000,212.700000,507.100000,212.300000C507.500000,211.800000,508,205.400000,508.200000,198C508.600000,183.500000,509.500000,180.500000,513.600000,179C515,178.400000,528.900000,178,544.600000,178L573.100000,178L575.500000,180.500000L578,182.900000L578,231.900000C578,263.500000,578.400000,281.900000,579,283.700000C579.600000,285.200000,596,302.500000,615.500000,322C653.600000,360.200000,655.200000,362.200000,652.600000,368.400000C649.800000,375,650,375,615.400000,375C587.200000,375,584,375.200000,582.100000,376.700000L580,378.500000L579.700000,483.700000L579.500000,588.900000L577.400000,591C576.200000,592.200000,573.500000,593.600000,571.400000,594C569.100000,594.600000,476.100000,594.900000,348,594.900000C164.900000,594.800000,128,594.600000,125.400000,593.500000C118.700000,590.600000,119,595.400000,119,480.500000C119,398.900000,118.700000,376.900000,117.700000,376.300000C117.100000,375.900000,101.800000,375.300000,83.800000,375C52.200000,374.500000,51,374.400000,49,372.400000C47.800000,371.200000,46.600000,368.400000,46.300000,366.100000C45.800000,362.700000,46.200000,361.300000,48.400000,358.200000C51.500000,353.700000,342.500000,63.800000,344.900000,62.800000C349.300000,61,353.800000,62,358.700000,65.900000Z" fill="rgb(255,255,255)" stroke="none" stroke-width="0.100000"/><g id="evu6mrxowtb4" transform="matrix(3 0 0 3 -249.74700000000001 -1060.97000000000003)" clip-path="none"><g id="evu6mrxowtb5_tr" transform="translate(199.528770,481.728134) rotate(0)"><g id="evu6mrxowtb5" transform="translate(-199.528770,-481.728134)"><path id="evu6mrxowtb6" d="M194.300000,427.700000C193,427.900000,192,428.900000,192,429.800000C192,430.700000,191.500000,433.200000,190.900000,435.200000C189.600000,440.200000,186.500000,440.300000,182.700000,435.500000C181.200000,433.600000,179.100000,432,178.200000,432C175.900000,432,167,437.600000,167,439C167,439.600000,167.700000,441.700000,168.500000,443.700000C169.300000,445.600000,170,447.900000,170,448.600000C170,450.800000,165.600000,451.300000,161.500000,449.600000C159.400000,448.700000,157.600000,448,157.400000,448C156.300000,448,151,457.700000,151,459.600000C151,461,152.300000,462.900000,154.500000,464.600000C156.400000,466,158,467.800000,158,468.600000C158,470.500000,154,473,150.800000,473C146,473,144,478,145.600000,485.900000C146.200000,488.700000,146.600000,489,149.900000,489C153.700000,489,158,491.300000,158,493.200000C158,493.900000,156.400000,495.800000,154.500000,497.600000C152.600000,499.300000,151,501.700000,151,502.900000C151,505.700000,153.200000,510,155.800000,512.300000C157.800000,514.100000,158,514.100000,162.200000,512.100000C166.500000,510.100000,166.500000,510.100000,168.500000,512.100000C170.400000,513.900000,170.400000,514.100000,168.700000,518.700000C167.100000,523.100000,167.100000,523.400000,168.700000,525.300000C169.700000,526.300000,172.300000,528.100000,174.500000,529.200000L178.400000,531.300000L182.300000,526.900000C186,522.700000,186.200000,522.600000,188.800000,524.100000C190.900000,525.200000,191.600000,526.400000,191.800000,529.500000C192.200000,534.400000,194.100000,536,199.700000,536C205,536,207.500000,533.700000,208.500000,528.100000C209.400000,522.700000,212.300000,521.600000,215.600000,525.600000C216.900000,527.200000,217.900000,528.800000,218,529.200000C218,530.900000,223.600000,529.900000,227.700000,527.500000C232.500000,524.600000,232.900000,523,230.300000,517.500000C228.700000,514.200000,228.700000,513.900000,230.300000,512.300000C231.900000,510.700000,232.300000,510.700000,236.900000,512.400000C239.700000,513.400000,242.400000,513.900000,242.900000,513.600000C243.400000,513.200000,245.300000,510.400000,247.100000,507.300000C250.100000,502,250.200000,501.600000,248.600000,500.600000C244,497.800000,242,495.700000,242,493.400000C242,490.800000,245,489,249.500000,489C252.500000,489,254,486.400000,254,481.100000C254,475.400000,253.200000,474.100000,249.200000,473.400000C241,471.900000,240,469.300000,245.500000,464C247.400000,462.100000,249,460,249,459.400000C249,458,243.500000,449.400000,242,448.500000C241.500000,448.200000,239.700000,448.600000,238.100000,449.500000C234.300000,451.400000,231.600000,451.400000,230,449.500000C228.900000,448.200000,229,447.300000,230.300000,444.400000C232.700000,439.400000,232.500000,438.400000,227.800000,435C222.500000,431.100000,220.800000,431.200000,216.900000,435.500000C215.100000,437.400000,212.900000,439,211.900000,439C209.600000,439,208,436.100000,208,432.100000C208,430.500000,207.600000,428.800000,207,428.500000C205.600000,427.700000,196.900000,427.100000,194.300000,427.700000Z" fill="rgb(72,187,241)" stroke="none" stroke-width="0.100000"/><path id="evu6mrxowtb7" d="M205.400000,455.600000C206.600000,456.100000,207,457.700000,207,462C207,465.200000,207.400000,469,208,470.400000C208.900000,472.800000,209.400000,473,215.900000,473C225,473,226.200000,474.100000,225.800000,482.400000L225.500000,488.500000L217.500000,488.800000C207.600000,489.100000,207,489.800000,207,499.700000L207,507.100000L199.800000,506.800000L192.500000,506.500000L192.200000,499C192,494.900000,191.500000,491.100000,190.900000,490.500000C190.400000,490,186.400000,489.300000,182.200000,489L174.500000,488.500000L174.500000,481L174.500000,473.500000L183,473L191.500000,472.500000L191.800000,465C191.900000,460.900000,192.200000,456.900000,192.500000,456.200000C193,454.900000,202.500000,454.500000,205.400000,455.600000Z" fill="rgb(255,255,255)" stroke="none" stroke-width="0.100000"/></g></g></g></svg>