<svg id="evyda663fnx1" xmlns="http://www.w3.org/2000/svg" xmlns:xlink="http://www.w3.org/1999/xlink" viewBox="0 0 700 700" shape-rendering="geometricPrecision" text-rendering="geometricPrecision"><style><![CDATA[#evyda663fnx5 {animation: evyda663fnx5_f_o 1000ms linear infinite normal forwards}@keyframes evyda663fnx5_f_o { 0% {fill-opacity: 0;animation-timing-function: step-end} 20% {fill-opacity: 1} 100% {fill-opacity: 1} }#evyda663fnx7 {animation: evyda663fnx7_f_o 1000ms linear infinite normal forwards}@keyframes evyda663fnx7_f_o { 0% {fill-opacity: 0;animation-timing-function: step-end} 40% {fill-opacity: 1} 100% {fill-opacity: 1} }#evyda663fnx9 {animation: evyda663fnx9_f_o 1000ms linear infinite normal forwards}@keyframes evyda663fnx9_f_o { 0% {fill-opacity: 0;animation-timing-function: step-end} 70% {fill-opacity: 1} 100% {fill-opacity: 1} }]]></style><path id="evyda663fnx2" d="M325,5C290.800000,7.400000,250.700000,16.500000,221.500000,28.700000C194.400000,40,158,60.200000,143.700000,71.900000C139.900000,75,134.500000,79.300000,131.600000,81.500000C106.400000,100.800000,75.800000,135.100000,57.200000,165C44.700000,185,27.200000,220.900000,22.600000,236C21.700000,239,19.900000,244.900000,18.600000,249C14.300000,262.700000,13.100000,267.400000,10.100000,282.500000C4.600000,310.600000,3.700000,319.900000,3.700000,351.500000C3.700000,383.100000,4.600000,393.100000,10.100000,420.500000C13.300000,436.700000,14.300000,440.500000,19.600000,458C28.400000,486.500000,52.700000,535.300000,67.700000,554.400000C69.800000,557,73.400000,561.700000,75.700000,564.800000C85.400000,577.400000,104.300000,597.900000,115.500000,607.900000C128.900000,619.900000,150.600000,637.200000,157.100000,641C159.400000,642.400000,165.200000,646,170,649C184.600000,658.200000,222.400000,675.900000,238,680.800000C241.600000,681.900000,248.100000,684,252.500000,685.400000C256.900000,686.800000,266.300000,689.100000,273.500000,690.500000C280.600000,692,286.700000,693.300000,287.100000,693.600000C289.700000,695.200000,336.200000,699.400000,350.500000,699.400000C366.300000,699.300000,404.700000,695.600000,415.500000,693C418.300000,692.300000,425.200000,690.800000,431,689.500000C462.900000,682.500000,507.200000,663.900000,534,646.500000C539.200000,643.100000,544.600000,639.700000,546,639C549.800000,637,571.100000,619.800000,584.200000,608.200000C603.100000,591.400000,628.800000,561,641.700000,540.300000C650.900000,525.500000,662.800000,502.400000,670.500000,484.500000C681.800000,458,689.900000,427.300000,694.600000,393C697,375.500000,697,327.800000,694.600000,310C690.300000,278.200000,680.900000,242.300000,670.800000,219C657.200000,187.900000,641.900000,161.200000,625.700000,140.500000C604.400000,113.200000,589.200000,98,560,74.700000C541.500000,60,510.400000,42.300000,480.900000,29.700000C458.400000,20.100000,423.600000,10.900000,395,7.100000C378,4.800000,343.400000,3.800000,325,5Z" fill="rgb(255,202,24)" stroke="none" stroke-width="0.100000"/><path id="evyda663fnx3" d="M367,98.200000C369.500000,98.800000,372.700000,100.200000,374.200000,101.200000C375.600000,102.200000,377.500000,103,378.200000,103C380.700000,103,391,115.200000,394.100000,121.800000C395.800000,125.300000,397.700000,131.100000,398.400000,134.800000L399.600000,141.500000L427.600000,142L455.500000,142.500000L455.800000,178.300000C455.900000,198,455.700000,216.200000,455.200000,218.800000L454.500000,223.500000L352.500000,223.300000C293.100000,223.100000,250.200000,222.600000,249.700000,222.100000C248.200000,220.600000,249.200000,145.600000,250.700000,143.800000C251.800000,142.600000,255.800000,142.400000,277.200000,142.800000C306.600000,143.300000,304.600000,144,307.400000,132.400000C308.900000,126,313.500000,115.500000,316.300000,112.100000C318,110.100000,326.800000,103.700000,331.500000,101.200000C340.400000,96.300000,354.600000,95.100000,367,98.200000Z" fill="rgb(255,255,255)" stroke="none" stroke-width="0.100000"/><path id="evyda663fnx4" d="M227.400000,182.600000C228.800000,183.100000,229,186.700000,229,211.800000C229,237,229.200000,240.600000,230.700000,242.200000C232.200000,243.900000,237.300000,244,353,244C468.200000,244,473.800000,243.900000,475.300000,242.200000C476.800000,240.600000,477,236.600000,477.200000,211.400000L477.500000,182.500000L512.200000,182.200000L547,182L547.500000,184.200000C547.800000,185.500000,547.900000,273.800000,547.800000,380.500000L547.500000,574.500000L353,574.500000L158.500000,574.500000L158.200000,378.200000L158,182L191.900000,182C210.600000,182,226.500000,182.300000,227.400000,182.600000Z" fill="rgb(255,255,255)" stroke="none" stroke-width="0.100000"/><path id="evyda663fnx5" d="M255.900000,295.300000C247.400000,303.700000,238.300000,312.600000,235.700000,315L230.900000,319.400000L223.100000,311.600000C216.600000,305.100000,214.900000,303.900000,213.100000,304.500000C210.500000,305.300000,199.800000,315.900000,200.200000,317.100000C201,319.400000,229.600000,347,231.100000,347C233.300000,347,286,294.900000,286,292.800000C286,291,274.200000,280,272.400000,280C271.800000,280,264.300000,286.900000,255.900000,295.300000Z" fill="rgb(255,202,24)" fill-opacity="0" stroke="none" stroke-width="0.100000"/><path id="evyda663fnx6" d="M333.500000,311C331.900000,311.400000,327.100000,311.800000,323,311.900000C318.600000,312,314.900000,312.500000,314.200000,313.200000C312.500000,314.900000,312.600000,329.400000,314.400000,330.900000C315.400000,331.700000,340.400000,331.900000,407.100000,331.800000L498.500000,331.500000L499,325C499.300000,321.400000,499.300000,317.100000,499,315.500000L498.400000,312.500000L467,311.700000C419.500000,310.600000,336.900000,310.100000,333.500000,311Z" fill="rgb(255,202,24)" stroke="none" stroke-width="0.100000"/><path id="evyda663fnx7" d="M251.700000,387.500000C240.700000,398.200000,231.300000,407,230.600000,407C229.900000,407,226.300000,403.900000,222.400000,400C218.400000,396,214.600000,393,213.400000,393C212.100000,393,209.200000,395.400000,205.500000,399.600000L199.700000,406.200000L215,421.500000L230.300000,436.900000L233.200000,434.700000C239.400000,429.900000,247.200000,422.400000,248.600000,419.700000C249.400000,418.200000,250.600000,417,251.300000,417C252,417,260.400000,409.100000,269.900000,399.400000C289.400000,379.700000,288.200000,382.600000,280.500000,374.200000C278,371.400000,273,367.900000,271.800000,368C271.600000,368.100000,262.600000,376.800000,251.700000,387.500000Z" fill="rgb(255,202,24)" fill-opacity="0" stroke="none" stroke-width="0.100000"/><path id="evyda663fnx8" d="M314.700000,401.800000C312.400000,404.400000,312.300000,417.200000,314.600000,419.400000C316,420.800000,325.600000,421,405.900000,421L495.700000,421L497.800000,418.700000C499.600000,416.800000,500,415.200000,500,409.800000C500,399,509.700000,400,406.300000,400C320.400000,400,316.200000,400.100000,314.700000,401.800000Z" fill="rgb(255,202,24)" stroke="none" stroke-width="0.100000"/><path id="evyda663fnx9" d="M252,476.500000C241.300000,487.200000,232.100000,496,231.500000,496C230.900000,496,226.900000,492.600000,222.600000,488.500000C218.300000,484.400000,214.400000,481,214.100000,481C213.700000,481,210.300000,484.100000,206.500000,487.900000L199.700000,494.900000L203.600000,499.200000C211.200000,507.400000,229.700000,525,230.700000,525C232.500000,525,286,471.900000,286,470.200000C286,468.500000,274.300000,457,272.500000,457C271.900000,457,262.700000,465.800000,252,476.500000Z" fill="rgb(255,202,24)" fill-opacity="0" stroke="none" stroke-width="0.100000"/><path id="evyda663fnx10" d="M314.800000,490.200000C313.400000,491.600000,313,493.700000,313,498.800000C313,510.700000,302.300000,509.500000,405.700000,509.800000C482.500000,510,495.900000,509.800000,497.500000,508.600000C499.200000,507.400000,499.500000,506,499.500000,499.100000C499.500000,494.700000,499,490.600000,498.400000,490C497.600000,489.200000,469.200000,488.900000,406.900000,488.700000C322,488.500000,316.400000,488.600000,314.800000,490.200000Z" fill="rgb(255,202,24)" stroke="none" stroke-width="0.100000"/></svg>