<svg id="ezcq2wjn7df1" xmlns="http://www.w3.org/2000/svg" xmlns:xlink="http://www.w3.org/1999/xlink" viewBox="0 0 815 815" shape-rendering="geometricPrecision" text-rendering="geometricPrecision"><style><![CDATA[#ezcq2wjn7df6 {animation: ezcq2wjn7df6_f_o 2000ms linear infinite normal forwards}@keyframes ezcq2wjn7df6_f_o { 0% {fill-opacity: 0} 10% {fill-opacity: 0;animation-timing-function: cubic-bezier(0.420000,0,1,1)} 40% {fill-opacity: 1;animation-timing-function: cubic-bezier(0,0,0.580000,1)} 70% {fill-opacity: 0;animation-timing-function: cubic-bezier(0.420000,0,1,1)} 100% {fill-opacity: 0} }#ezcq2wjn7df7 {animation: ezcq2wjn7df7_f_o 2000ms linear infinite normal forwards}@keyframes ezcq2wjn7df7_f_o { 0% {fill-opacity: 0} 15% {fill-opacity: 0;animation-timing-function: cubic-bezier(0.420000,0,1,1)} 45% {fill-opacity: 1;animation-timing-function: cubic-bezier(0,0,0.580000,1)} 75% {fill-opacity: 0;animation-timing-function: cubic-bezier(0.420000,0,1,1)} 100% {fill-opacity: 0} }#ezcq2wjn7df8 {animation: ezcq2wjn7df8_f_o 2000ms linear infinite normal forwards}@keyframes ezcq2wjn7df8_f_o { 0% {fill-opacity: 0} 20% {fill-opacity: 0;animation-timing-function: cubic-bezier(0.420000,0,1,1)} 50% {fill-opacity: 1;animation-timing-function: cubic-bezier(0,0,0.580000,1)} 80% {fill-opacity: 0;animation-timing-function: cubic-bezier(0.420000,0,1,1)} 100% {fill-opacity: 0} }#ezcq2wjn7df9 {animation: ezcq2wjn7df9_f_o 2000ms linear infinite normal forwards}@keyframes ezcq2wjn7df9_f_o { 0% {fill-opacity: 0} 5% {fill-opacity: 0;animation-timing-function: cubic-bezier(0.420000,0,1,1)} 35% {fill-opacity: 1;animation-timing-function: cubic-bezier(0,0,0.580000,1)} 65% {fill-opacity: 0;animation-timing-function: cubic-bezier(0.420000,0,1,1)} 100% {fill-opacity: 0} }]]></style><g id="ezcq2wjn7df2"><path id="ezcq2wjn7df3" d="M386,2.299980C385.700000,2.599980,381,3.099980,375.500000,3.499980C370,3.899980,362.700000,4.599980,359.300000,5.099980C342.300000,7.599980,340.300000,7.999980,319,12.399980C299.100000,16.599980,266.300000,27.099980,247,35.599980C209.100000,52.299980,177.300000,72.099980,144.500000,99.599980C132.500000,109.699980,109.500000,132.699980,101,142.999980C98.100000,146.599980,95.400000,149.699980,95.100000,149.999980C92.500000,151.999980,65,189.999980,65,191.599980C65,191.899980,63.700000,193.999980,62.100000,196.299980C55.400000,205.899980,38.300000,239.399980,32,255.499980C27.800000,266.199980,24.300000,276.399980,19.700000,291.499980C13.300000,312.299980,7.800000,339.299980,4.500000,365.299980C0.100000,400.499980,2.300000,447.099980,10.100000,484.799980C11.700000,492.899980,13.300000,500.399980,13.500000,501.499980C13.700000,502.599980,14.400000,505.099980,14.900000,506.999980C15.400000,508.899980,16.800000,513.899980,17.900000,517.999980C21.500000,531.199980,29.500000,554.499980,35.300000,568.499980C41.100000,582.499980,58.500000,615.299980,66,626.499980C73.600000,637.899980,79.400000,646.399980,80.700000,647.999980C85.200000,653.599980,91.900000,662.099980,94,664.999980C96.700000,668.599980,100,672.699980,106.400000,679.999980C113.600000,688.199980,136.500000,710.399980,142.600000,714.999980C145.800000,717.499980,148.600000,719.799980,148.800000,720.199980C149.600000,721.899980,165,733.799980,177.500000,742.199980C198.400000,756.299980,210.200000,762.999980,238.500000,776.899980C269.500000,792.099980,320.800000,806.799980,355.500000,810.499980C358.300000,810.799980,362.700000,811.299980,365.400000,811.599980C386.100000,814.199980,404.300000,814.799980,424.500000,813.599980C431.100000,813.099980,439,812.699980,442,812.499980C445,812.299980,449.300000,811.899980,451.500000,811.599980C467,809.599980,472.300000,808.799980,478,807.599980C481.600000,806.799980,487.200000,805.599980,490.500000,804.999980C497.500000,803.599980,512.100000,800.099980,523.500000,796.999980C533.400000,794.299980,564.600000,782.799980,572,778.999980C575,777.499980,582.200000,773.899980,588,771.099980C599.200000,765.599980,601.100000,764.499980,618.400000,754.199980C630.400000,747.099980,632.100000,745.999980,648.500000,733.799980C671.700000,716.699980,696.600000,693.599980,713.900000,672.999980C726.200000,658.399980,746.700000,630.099980,754.300000,617.099980C762.700000,602.699980,775.300000,577.799980,779.900000,566.399980C790.800000,539.299980,792.300000,534.799980,798.600000,509.999980C805.900000,481.599980,808.800000,462.299980,811,429.499980C813.800000,388.199980,807.700000,335.499980,795.500000,294.499980C791.200000,280.199980,781.400000,252.599980,778.600000,247.099980C777.900000,245.699980,776.400000,242.499980,775.200000,239.999980C769.600000,227.799980,761.300000,211.799980,755,201.199980C747.900000,189.199980,746.300000,186.799980,739.500000,177.499980C737.300000,174.499980,733.300000,168.799980,730.500000,164.799980C718.400000,147.599980,692,119.199980,671.500000,101.499980C635.400000,70.399980,596.400000,46.799980,554.500000,30.799980C523.800000,18.999980,498.900000,12.199980,468.500000,7.499980C452.800000,5.099980,441.600000,3.799980,433,3.399980C411.500000,2.399980,386.500000,1.799980,386,2.299980Z" fill="rgb(52,122,182)" stroke="none" stroke-width="0.100000"/></g><g id="ezcq2wjn7df4"><path id="ezcq2wjn7df5" d="M432.500000,105.299980C440.100000,107.099980,453,111.499980,457.900000,113.899980C469,119.599980,479.400000,130.199980,486.300000,142.999980C495.400000,159.799980,498.900000,185.199980,495.900000,214.299980C494.900000,224.799980,494.900000,224.999980,497.300000,228.199980C501.300000,233.599980,502.200000,235.999980,503.100000,243.899980C505,260.499980,498.200000,277.899980,488.100000,282.499980C484.700000,283.999980,484,284.799980,483.400000,288.399980C482.200000,296.099980,474.500000,314.599980,467.900000,325.999980C466.100000,329.199980,453.900000,345.599980,450.600000,349.299980C448.800000,351.399980,448.300000,352.999980,448.500000,355.299980C448.700000,357.099980,449.200000,360.699980,449.400000,363.299980C449.700000,365.899980,451.100000,370.399980,452.400000,373.399980L454.800000,378.599980L463.700000,380.899980C485.600000,386.599980,509.400000,396.999980,539.500000,413.999980C563.500000,427.499980,590.900000,450.699980,600.200000,465.499980C606.700000,475.799980,612,489.699980,612,496.699980L612,498.999980L407.400000,498.999980L202.700000,498.999980L203.300000,492.199980C203.900000,484.199980,207.500000,475.099980,213.700000,465.699980C218.600000,458.299980,233.300000,443.399980,244.500000,434.499980C270.600000,413.599980,317.300000,389.899980,349.200000,381.399980C354.200000,379.999980,359,378.399980,359.700000,377.899980C361.500000,376.299980,364.700000,365.399980,365.600000,357.999980C366.200000,352.099980,366.100000,351.699980,363.300000,348.699980C351.200000,335.799980,336.800000,309.699980,332.800000,293.299980C330.600000,284.399980,330.400000,283.999980,326.900000,282.599980C318.200000,279.099980,312.100000,267.499980,311.300000,252.899980C310.600000,241.799980,311.200000,238.599980,315.600000,231.399980L319.200000,225.499980L318,213.999980C316.700000,201.399980,316.800000,182.299980,318.300000,175.099980C323.600000,148.299980,329.600000,135.999980,343.800000,122.899980C353.200000,114.099980,371.600000,106.499980,389,103.999980C397.700000,102.799980,425,103.599980,432.500000,105.299980Z" fill="rgb(255,255,255)" stroke="none" stroke-width="0.100000"/><path id="ezcq2wjn7df6" d="M351.300000,564.499980C365.300000,567.399980,376.600000,576.299980,383.300000,589.699980C388.600000,599.999980,390.100000,606.799980,390.700000,622.499980C391.900000,654.399980,382.800000,674.599980,362.500000,684.399980C352.100000,689.499980,345.500000,690.199980,313,689.799980L284.500000,689.499980L284.200000,628.499980C284.100000,594.899980,284.200000,566.499980,284.500000,565.199980L285,562.999980L314.800000,562.999980C336.700000,562.999980,346.300000,563.399980,351.300000,564.499980Z" fill="rgb(255,255,255)" fill-opacity="0" stroke="none" stroke-width="0.100000"/><path id="ezcq2wjn7df7" d="M500.200000,625.499980C513.900000,659.599980,525.200000,687.899980,525.300000,688.499980C525.400000,689.099980,519.900000,689.599980,510.700000,689.799980C497.300000,689.999980,495.900000,689.899980,495.400000,688.299980C495.100000,687.299980,492.700000,680.999980,490.200000,674.199980L485.500000,661.999980L461.100000,662.199980L436.800000,662.499980L434.600000,668.499980C433.400000,671.799980,431.100000,677.999980,429.600000,682.199980L426.800000,689.999980L413.100000,689.999980C405.500000,689.999980,399.100000,689.799980,398.800000,689.499980C398.300000,688.899980,403,675.799980,410.500000,656.999980C412.400000,652.299980,417.700000,638.599980,422.300000,626.499980C427,614.399980,431.300000,603.399980,431.900000,601.999980C432.500000,600.599980,435.900000,591.799980,439.600000,582.499980C443.200000,573.099980,446.700000,564.899980,447.200000,564.199980C448,563.299980,451.800000,562.999980,461.800000,563.199980L475.400000,563.499980Z" fill="rgb(255,255,255)" fill-opacity="0" stroke="none" stroke-width="0.100000"/><path id="ezcq2wjn7df8" d="M604.400000,563.999980C616.300000,565.899980,626.200000,573.599980,631.300000,584.799980C634.300000,591.399980,634.900000,608.299980,632.500000,616.599980C628.700000,629.599980,617.200000,639.499980,603.400000,641.599980C600.800000,641.999980,591,642.499980,581.600000,642.899980L564.500000,643.499980L564.200000,666.699980L564,689.999980L550.500000,689.999980L537,689.999980L536.900000,629.699980C536.800000,569.099980,536.800000,565.099980,537.700000,563.699980C538.300000,562.599980,597.500000,562.799980,604.400000,563.999980Z" fill="rgb(255,255,255)" fill-opacity="0" stroke="none" stroke-width="0.100000"/><path id="ezcq2wjn7df9" d="M206,615.499980L206,666.999980L236.300000,666.999980C252.900000,666.999980,267.100000,667.399980,267.800000,667.799980C268.700000,668.399980,269,671.399980,268.800000,679.099980L268.500000,689.499980L223.700000,689.499980L179,689.499980L179,627.999980C178.900000,594.199980,179,565.899980,179,565.199980C179,564.299980,182.400000,563.999980,192.500000,563.999980L206,563.999980Z" fill="rgb(255,255,255)" fill-opacity="0" stroke="none" stroke-width="0.100000"/><path id="ezcq2wjn7df10" d="M312,626.999980L312,668.299980L326.800000,667.599980C334.900000,667.199980,343.100000,666.499980,345.100000,665.999980C351.100000,664.399980,355.300000,660.899980,358.200000,654.999980C362.200000,646.999980,363.300000,639.599980,362.800000,622.999980C362.200000,606.099980,360.400000,599.699980,354.300000,593.799980C348,587.699980,344.500000,586.699980,327.300000,586.199980L312,585.799980Z" fill="rgb(52,122,182)" stroke="none" stroke-width="0.100000"/><path id="ezcq2wjn7df11" d="M452.800000,617.699980L445.200000,638.499980L460.700000,638.799980C469.300000,638.899980,476.400000,638.899980,476.600000,638.799980C477.100000,638.299980,461.700000,596.999980,461,596.999980C460.700000,596.999980,457,606.299980,452.800000,617.699980Z" fill="rgb(52,122,182)" stroke="none" stroke-width="0.100000"/><path id="ezcq2wjn7df12" d="M564,602.899980L564,619.999980L575.800000,619.999980C591.200000,619.999980,598.500000,618.299980,602.700000,613.699980C608,607.799980,608.300000,598.899980,603.300000,592.999980C598.600000,587.399980,596,586.599980,579.300000,586.199980L564,585.799980Z" fill="rgb(52,122,182)" stroke="none" stroke-width="0.100000"/></g></svg>