<svg id="ek6a98sp0dt1" xmlns="http://www.w3.org/2000/svg" xmlns:xlink="http://www.w3.org/1999/xlink" viewBox="0 0 700 700" shape-rendering="geometricPrecision" text-rendering="geometricPrecision"><style><![CDATA[#ek6a98sp0dt3_to {animation: ek6a98sp0dt3_to__to 1000ms linear infinite normal forwards}@keyframes ek6a98sp0dt3_to__to { 0% {transform: translate(0px,0px)} 50% {transform: translate(-60px,-60px)} 100% {transform: translate(0px,0px)} }#ek6a98sp0dt3_ts {animation: ek6a98sp0dt3_ts__ts 1000ms linear infinite normal forwards}@keyframes ek6a98sp0dt3_ts__ts { 0% {transform: scale(0.750000,0.750000)} 50% {transform: scale(0.900000,0.900000)} 100% {transform: scale(0.750000,0.750000)} }]]></style><path id="ek6a98sp0dt2" d="M322,10C299.700000,11.100000,286.200000,13.300000,258.400000,20.500000C214,32.100000,168.600000,55.100000,133,84.100000C80.800000,126.400000,42.700000,180.900000,21.300000,243.500000C15,262,8,292.700000,6.100000,310.500000C3,338.900000,4.100000,386,8.500000,409.500000C18.400000,462.500000,35.500000,504.800000,63.700000,546C81.600000,572,109.500000,601.800000,135.500000,622.400000C173,652.300000,227.800000,678.100000,275,687.900000C305.400000,694.300000,308,694.500000,346.500000,694.400000C385,694.300000,391.300000,693.800000,417.500000,688.400000C477.300000,675.900000,532.900000,647.600000,576.500000,607.300000C589.100000,595.700000,610.700000,572.700000,618.700000,562.500000C653.100000,518.500000,676.500000,464.600000,686.500000,406.500000C691.300000,378.800000,691,319.500000,686,294C681,268.500000,674.300000,245,665.400000,222.300000C654.200000,193.400000,634.300000,160.600000,610.600000,132C599.900000,119,576,95.700000,561.500000,84.100000C548,73.300000,526.500000,58.600000,512.400000,50.800000C476.800000,31,431.300000,16.300000,389.500000,11.100000C378.200000,9.700000,340.400000,9.100000,322,10ZM276,222.400000C289,229.700000,319.900000,247.300000,334,255.300000C339.800000,258.600000,349.200000,264,355,267.200000C365.400000,273.100000,385,284.400000,402.500000,294.500000C407.500000,297.400000,413.300000,300.800000,415.500000,302C417.700000,303.300000,424.100000,306.900000,429.800000,310.200000C435.400000,313.400000,444.800000,318.700000,450.700000,322.100000C456.600000,325.400000,465.700000,330.700000,471,333.800000C476.200000,336.900000,482.600000,340.600000,485.100000,342C496.900000,348.500000,502,351.500000,502,352.200000C502,352.600000,500.100000,353.900000,497.800000,355.100000C495.400000,356.300000,487.200000,361,479.500000,365.500000C462.200000,375.600000,446,384.900000,435.500000,390.800000C431.100000,393.200000,422.300000,398.300000,416,402C395.700000,413.900000,377.600000,424.300000,372.500000,427C366.900000,430,303.500000,466.100000,284,477.500000C268.400000,486.600000,265,488.300000,264.200000,487.500000C263.900000,487.200000,263.400000,442.500000,263.200000,388.200000C262.800000,293.500000,263.500000,215.600000,264.900000,216.200000C265.200000,216.400000,270.200000,219.200000,276,222.400000Z" fill="rgb(255,0,0)" stroke="none" stroke-width="0.100000"/><g id="ek6a98sp0dt3_to" transform="translate(0,0)"><g id="ek6a98sp0dt3_ts" transform="scale(0.750000,0.750000)"><path id="ek6a98sp0dt3" d="M345.289900,661.836160C340.926780,655.094770,338.805240,316.799390,343.001950,297.005650C345.747890,284.054480,348.192570,280.969890,356.486050,279.992010C374.495940,277.868470,565.585240,377.894510,646.951120,432.036470C694.931280,463.963130,695.515890,473.351910,651.413090,503.695860C617.097140,527.306190,547.797390,567.780610,456.779660,617.371250C365.610990,667.044120,352.138220,672.417390,345.289900,661.836160Z" transform="translate(0,0)" fill="rgb(255,255,255)" fill-rule="evenodd" stroke="rgb(255,255,255)" stroke-width="0.525989"/></g></g></svg>