<svg id="eljkim8q1vrf1" xmlns="http://www.w3.org/2000/svg" xmlns:xlink="http://www.w3.org/1999/xlink" viewBox="0 0 700 700" shape-rendering="geometricPrecision" text-rendering="geometricPrecision"><style><![CDATA[#eljkim8q1vrf1{pointer-events: all}#eljkim8q1vrf1:hover #eljkim8q1vrf4_tr {animation: eljkim8q1vrf4_tr__tr 30000ms linear infinite normal forwards}@keyframes eljkim8q1vrf4_tr__tr { 0% {transform: translate(348.775223px,352.972534px) rotate(0deg)} 100% {transform: translate(348.775223px,352.972534px) rotate(360deg)} }]]></style><path id="eljkim8q1vrf2" d="M316,10.100000C312.400000,10.600000,305.900000,11.500000,301.500000,12C270.500000,16.200000,236.600000,25.900000,208.500000,38.800000C165.800000,58.300000,138.900000,77.200000,104.900000,111.700000C74.900000,141.900000,59.100000,163.800000,40.900000,200C28.400000,225.100000,17.300000,255.500000,13.100000,276.400000C12.600000,278.700000,11.500000,283.900000,10.700000,288C7.200000,304.500000,4.100000,335.800000,4,354C3.900000,376.900000,7.800000,408.400000,13.300000,429.500000C25.500000,476.100000,40,509.800000,62.300000,543.200000C110.900000,615.900000,185.300000,668.200000,268.500000,688C283.300000,691.500000,291.600000,693,316.900000,696.400000C330.300000,698.300000,367.500000,698.600000,379.700000,697C409.200000,693,436,687.600000,451.700000,682.400000C484.500000,671.600000,516.500000,656.100000,541.500000,639.100000C558.900000,627.300000,578.900000,611.100000,592.300000,598.100000C607.600000,583.300000,634.500000,548.400000,646,528.500000C658.800000,506.300000,674.200000,471.700000,677.900000,457C678.600000,454.500000,680.100000,448.900000,681.400000,444.500000C689.200000,418.100000,690.600000,412,692,399C698.500000,337.100000,692.700000,286.900000,672.800000,233C662.400000,204.900000,650.300000,182.400000,629,151.600000C622.500000,142.200000,598.900000,115.100000,588.800000,105.400000C547.600000,65.800000,496.200000,36.100000,444,21.700000C437.100000,19.800000,430.400000,18,429,17.700000C402,12.400000,394.900000,11.300000,380.300000,10C366,8.800000,325.300000,8.900000,316,10.100000Z" fill="rgb(121,121,121)" stroke="none" stroke-width="0.100000"/><g id="eljkim8q1vrf3" clip-path="none"><g id="eljkim8q1vrf4_tr" transform="translate(348.775223,352.972534) rotate(0)"><g id="eljkim8q1vrf4" transform="translate(-348.775223,-352.972534)"><path id="eljkim8q1vrf5" d="M204.800000,145.100000C211.200000,147.900000,229,165.800000,261.500000,202C268.100000,209.400000,276.700000,218.800000,280.500000,223C284.400000,227.200000,296.100000,240,306.500000,251.500000C317,263,328.900000,276,333,280.500000C337.100000,284.900000,342.200000,290.600000,344.200000,293.100000C347.600000,297.300000,347.800000,297.800000,347,301.500000C346.200000,305.100000,346.400000,310.900000,347.600000,316.700000C348.300000,320.400000,352.900000,322,362.400000,322L370.900000,322L377.400000,329.600000C381.400000,334.300000,384.800000,339.400000,386.100000,342.900000C388,347.900000,388.100000,349.200000,387.100000,355.200000C386.500000,358.900000,385.400000,363.800000,384.600000,366.200000L383.100000,370.400000L440.100000,427.600000L497.200000,484.800000L506.600000,486L516,487.300000L522.900000,495.900000C526.600000,500.600000,535.900000,512.800000,543.500000,522.900000L557.200000,541.200000L546.900000,551.700000C541.200000,557.400000,535.700000,562.600000,534.700000,563.100000C532.800000,564.200000,532.200000,563.800000,497.600000,537.700000C479.900000,524.300000,478,521.900000,478,512.300000L478,506.500000L420.200000,448.800000L362.500000,391.100000L355.500000,393.100000C347.200000,395.500000,337.300000,395.300000,331.900000,392.700000C329.900000,391.700000,325.200000,388.100000,321.400000,384.600000L314.500000,378.300000L314.500000,369.900000C314.400000,356.100000,311.300000,353.400000,296.600000,354.300000L287.600000,354.800000L282.100000,349.600000C259.800000,328.900000,244.500000,314.800000,232.500000,304C224.900000,297.100000,212.100000,285.400000,204,278C196,270.600000,183.400000,259.100000,176,252.500000C154.200000,233.100000,141,219.900000,138.600000,215C133.400000,204.600000,132.700000,193.800000,136.800000,184.900000C137.900000,182.500000,141.900000,176.900000,145.800000,172.500000C152.500000,164.900000,169.500000,149.300000,175.200000,145.600000C181.100000,141.700000,196.600000,141.500000,204.800000,145.100000Z" fill="rgb(255,255,255)" stroke="none" stroke-width="0.100000"/><path id="eljkim8q1vrf6" d="M483.600000,145.500000C491.300000,147,501.400000,151.900000,502.400000,154.700000C502.700000,155.400000,492.800000,166.100000,478.800000,180.100000L454.700000,204.100000L455.300000,215.700000L455.900000,227.300000L469,240.600000L482.200000,253.800000L493.800000,254.500000L505.300000,255.200000L528.900000,231.600000C541.900000,218.600000,553.100000,208,553.700000,208C555.900000,208,560.100000,214.800000,561.700000,220.600000C563.900000,229.300000,564,257.400000,561.800000,267C559.200000,278.100000,558.500000,280.300000,554.600000,288.200000C544.900000,308.500000,527.700000,322.600000,504.500000,329.200000C497.700000,331.100000,494.200000,331.500000,481.500000,331.400000L466.500000,331.400000L453.100000,326.700000L439.600000,322.100000L434.100000,326.800000C431,329.400000,422.100000,337.700000,414.400000,345.200000C406.600000,352.800000,400.100000,359,399.900000,359C399.700000,359,399.600000,354.400000,399.800000,348.800000L400.100000,338.500000L396.100000,332.300000C393.900000,328.800000,388.700000,322.600000,384.700000,318.300000L377.300000,310.700000L368.100000,310C363.100000,309.600000,358.500000,308.900000,357.900000,308.300000C356,306.400000,357.900000,303.200000,365.800000,295.200000C372.700000,288.300000,383.300000,276.500000,386.800000,271.800000C387.900000,270.400000,387.500000,268.100000,384.100000,257.300000C378.500000,239.400000,378.100000,237,378,223.500000C378,202.900000,383.400000,189.700000,398,174.900000C407.500000,165.300000,415.400000,159.600000,426.200000,154.600000C437.400000,149.400000,444.700000,147.400000,459,145.600000C473,143.800000,474.600000,143.800000,483.600000,145.500000Z" fill="rgb(255,255,255)" stroke="none" stroke-width="0.100000"/><path id="eljkim8q1vrf7" d="M300.300000,373.600000C301.700000,385.100000,303.500000,388.600000,312.500000,396.300000C316.900000,400.100000,322.800000,404.500000,325.500000,406.100000C330.100000,408.700000,331.300000,409,340.300000,409C349.900000,409,350.100000,409,348.900000,411.100000C348.300000,412.300000,332.700000,428.600000,314.200000,447.400000C238.400000,524.300000,242,520.300000,237.600000,530.900000C230.600000,547.700000,218,558.200000,201.100000,561.400000C181.300000,565.200000,160.700000,554.200000,151.600000,535C148.900000,529.400000,148.500000,527.200000,148.200000,518.600000C147.900000,512.800000,148.300000,506.900000,149,504.100000C152.700000,490.400000,163.200000,478.600000,176.600000,473C181,471.200000,186.800000,468,189.700000,465.900000C192.600000,463.800000,215.600000,441.500000,240.900000,416.500000C278.300000,379.500000,288,370.500000,292.200000,368.500000C295.100000,367.100000,298,366.200000,298.500000,366.300000C299.100000,366.500000,299.900000,369.800000,300.300000,373.600000Z" fill="rgb(255,255,255)" stroke="none" stroke-width="0.100000"/><path id="eljkim8q1vrf8" d="M187.200000,501.100000C176.500000,506.400000,174.500000,518.700000,182.900000,527.100000C188.800000,533.100000,197.800000,533.600000,204,528.300000C208.200000,524.800000,210,520.900000,210,515.400000C210,509.400000,207.200000,504.800000,201.600000,501.500000C196.400000,498.400000,192.800000,498.400000,187.200000,501.100000Z" fill="rgb(121,121,121)" stroke="none" stroke-width="0.100000"/></g></g></g></svg>